M48
;GenerationSoftware,Autodesk,EAGLE,9.2.2*%
;CreationDate,2019-01-20T09:54:04Z*%
FMAT,2
ICI,OFF
METRIC,TZ,000.000
T3C1.000
T2C1.016
T1C3.175
%
G90
M71
T1
X85090Y27940
X33020Y22860
X34290Y71120
X85090Y55880
T2
X54610Y27940
X57150Y27940
X59690Y27940
X62230Y27940
X64770Y27940
X72390Y54610
X72390Y57150
X69850Y22860
X46990Y22860
X49530Y22860
X52070Y22860
X54610Y22860
X57150Y22860
X59690Y22860
X62230Y22860
X64770Y22860
X72390Y59690
X72390Y22860
X74930Y22860
X77470Y22860
X80010Y22860
X82550Y22860
X82550Y71120
X80010Y71120
X77470Y71120
X74930Y71120
X72390Y71120
X69850Y71120
X67310Y71120
X64770Y71120
X60706Y71120
X58166Y71120
X55626Y71120
X53086Y71120
X50546Y71120
X48006Y71120
X45466Y71120
X42926Y71120
X40386Y71120
X37846Y71120
X82690Y50750
X85230Y50750
X82690Y48210
X85230Y48210
X82690Y45670
X85230Y45670
X82550Y27940
X80010Y27940
X77470Y27940
X74930Y27940
X72390Y27940
X69850Y27940
X64770Y66040
X67310Y66040
X69850Y66040
X72390Y66040
X74930Y66040
X77470Y66040
X80010Y66040
X82550Y66040
X46990Y27940
X49530Y27940
X52070Y27940
T3
X55880Y63500
X58420Y60960
X50800Y63500
X60960Y52070
X68580Y52070
X57150Y39370
X66040Y39370
X48260Y60960
X55880Y55880
X58420Y55880
X60960Y55880
X63500Y55880
X60960Y58420
X58420Y58420
X55880Y58420
X63500Y58420
M30