G04 EAGLE Gerber RS-274X export*
G75*
%MOMM*%
%FSLAX34Y34*%
%LPD*%
%IN*%
%IPPOS*%
%AMOC8*
5,1,8,0,0,1.08239X$1,22.5*%
G01*
%ADD10C,0.254000*%


D10*
X0Y0D02*
X1600000Y0D01*
X1600000Y1000000D01*
X0Y1000000D01*
X0Y0D01*
X358775Y710680D02*
X358707Y709643D01*
X358571Y708613D01*
X358369Y707593D01*
X358100Y706589D01*
X357765Y705605D01*
X357368Y704645D01*
X356908Y703713D01*
X356388Y702812D01*
X355811Y701948D01*
X355178Y701124D01*
X354493Y700342D01*
X353758Y699607D01*
X352976Y698922D01*
X352152Y698289D01*
X351288Y697712D01*
X350387Y697192D01*
X349455Y696732D01*
X348495Y696335D01*
X347511Y696000D01*
X346507Y695731D01*
X345487Y695529D01*
X344457Y695393D01*
X343420Y695325D01*
X342380Y695325D01*
X341343Y695393D01*
X340313Y695529D01*
X339293Y695731D01*
X338289Y696000D01*
X337305Y696335D01*
X336345Y696732D01*
X335413Y697192D01*
X334512Y697712D01*
X333648Y698289D01*
X332824Y698922D01*
X332042Y699607D01*
X331307Y700342D01*
X330622Y701124D01*
X329989Y701948D01*
X329412Y702812D01*
X328892Y703713D01*
X328432Y704645D01*
X328035Y705605D01*
X327700Y706589D01*
X327431Y707593D01*
X327229Y708613D01*
X327093Y709643D01*
X327025Y710680D01*
X327025Y711720D01*
X327093Y712757D01*
X327229Y713787D01*
X327431Y714807D01*
X327700Y715811D01*
X328035Y716795D01*
X328432Y717755D01*
X328892Y718687D01*
X329412Y719588D01*
X329989Y720452D01*
X330622Y721276D01*
X331307Y722058D01*
X332042Y722793D01*
X332824Y723478D01*
X333648Y724111D01*
X334512Y724688D01*
X335413Y725208D01*
X336345Y725668D01*
X337305Y726065D01*
X338289Y726400D01*
X339293Y726669D01*
X340313Y726871D01*
X341343Y727007D01*
X342380Y727075D01*
X343420Y727075D01*
X344457Y727007D01*
X345487Y726871D01*
X346507Y726669D01*
X347511Y726400D01*
X348495Y726065D01*
X349455Y725668D01*
X350387Y725208D01*
X351288Y724688D01*
X352152Y724111D01*
X352976Y723478D01*
X353758Y722793D01*
X354493Y722058D01*
X355178Y721276D01*
X355811Y720452D01*
X356388Y719588D01*
X356908Y718687D01*
X357368Y717755D01*
X357765Y716795D01*
X358100Y715811D01*
X358369Y714807D01*
X358571Y713787D01*
X358707Y712757D01*
X358775Y711720D01*
X358775Y710680D01*
X866775Y558280D02*
X866707Y557243D01*
X866571Y556213D01*
X866369Y555193D01*
X866100Y554189D01*
X865765Y553205D01*
X865368Y552245D01*
X864908Y551313D01*
X864388Y550412D01*
X863811Y549548D01*
X863178Y548724D01*
X862493Y547942D01*
X861758Y547207D01*
X860976Y546522D01*
X860152Y545889D01*
X859288Y545312D01*
X858387Y544792D01*
X857455Y544332D01*
X856495Y543935D01*
X855511Y543600D01*
X854507Y543331D01*
X853487Y543129D01*
X852457Y542993D01*
X851420Y542925D01*
X850380Y542925D01*
X849343Y542993D01*
X848313Y543129D01*
X847293Y543331D01*
X846289Y543600D01*
X845305Y543935D01*
X844345Y544332D01*
X843413Y544792D01*
X842512Y545312D01*
X841648Y545889D01*
X840824Y546522D01*
X840042Y547207D01*
X839307Y547942D01*
X838622Y548724D01*
X837989Y549548D01*
X837412Y550412D01*
X836892Y551313D01*
X836432Y552245D01*
X836035Y553205D01*
X835700Y554189D01*
X835431Y555193D01*
X835229Y556213D01*
X835093Y557243D01*
X835025Y558280D01*
X835025Y559320D01*
X835093Y560357D01*
X835229Y561387D01*
X835431Y562407D01*
X835700Y563411D01*
X836035Y564395D01*
X836432Y565355D01*
X836892Y566287D01*
X837412Y567188D01*
X837989Y568052D01*
X838622Y568876D01*
X839307Y569658D01*
X840042Y570393D01*
X840824Y571078D01*
X841648Y571711D01*
X842512Y572288D01*
X843413Y572808D01*
X844345Y573268D01*
X845305Y573665D01*
X846289Y574000D01*
X847293Y574269D01*
X848313Y574471D01*
X849343Y574607D01*
X850380Y574675D01*
X851420Y574675D01*
X852457Y574607D01*
X853487Y574471D01*
X854507Y574269D01*
X855511Y574000D01*
X856495Y573665D01*
X857455Y573268D01*
X858387Y572808D01*
X859288Y572288D01*
X860152Y571711D01*
X860976Y571078D01*
X861758Y570393D01*
X862493Y569658D01*
X863178Y568876D01*
X863811Y568052D01*
X864388Y567188D01*
X864908Y566287D01*
X865368Y565355D01*
X865765Y564395D01*
X866100Y563411D01*
X866369Y562407D01*
X866571Y561387D01*
X866707Y560357D01*
X866775Y559320D01*
X866775Y558280D01*
X866775Y278880D02*
X866707Y277843D01*
X866571Y276813D01*
X866369Y275793D01*
X866100Y274789D01*
X865765Y273805D01*
X865368Y272845D01*
X864908Y271913D01*
X864388Y271012D01*
X863811Y270148D01*
X863178Y269324D01*
X862493Y268542D01*
X861758Y267807D01*
X860976Y267122D01*
X860152Y266489D01*
X859288Y265912D01*
X858387Y265392D01*
X857455Y264932D01*
X856495Y264535D01*
X855511Y264200D01*
X854507Y263931D01*
X853487Y263729D01*
X852457Y263593D01*
X851420Y263525D01*
X850380Y263525D01*
X849343Y263593D01*
X848313Y263729D01*
X847293Y263931D01*
X846289Y264200D01*
X845305Y264535D01*
X844345Y264932D01*
X843413Y265392D01*
X842512Y265912D01*
X841648Y266489D01*
X840824Y267122D01*
X840042Y267807D01*
X839307Y268542D01*
X838622Y269324D01*
X837989Y270148D01*
X837412Y271012D01*
X836892Y271913D01*
X836432Y272845D01*
X836035Y273805D01*
X835700Y274789D01*
X835431Y275793D01*
X835229Y276813D01*
X835093Y277843D01*
X835025Y278880D01*
X835025Y279920D01*
X835093Y280957D01*
X835229Y281987D01*
X835431Y283007D01*
X835700Y284011D01*
X836035Y284995D01*
X836432Y285955D01*
X836892Y286887D01*
X837412Y287788D01*
X837989Y288652D01*
X838622Y289476D01*
X839307Y290258D01*
X840042Y290993D01*
X840824Y291678D01*
X841648Y292311D01*
X842512Y292888D01*
X843413Y293408D01*
X844345Y293868D01*
X845305Y294265D01*
X846289Y294600D01*
X847293Y294869D01*
X848313Y295071D01*
X849343Y295207D01*
X850380Y295275D01*
X851420Y295275D01*
X852457Y295207D01*
X853487Y295071D01*
X854507Y294869D01*
X855511Y294600D01*
X856495Y294265D01*
X857455Y293868D01*
X858387Y293408D01*
X859288Y292888D01*
X860152Y292311D01*
X860976Y291678D01*
X861758Y290993D01*
X862493Y290258D01*
X863178Y289476D01*
X863811Y288652D01*
X864388Y287788D01*
X864908Y286887D01*
X865368Y285955D01*
X865765Y284995D01*
X866100Y284011D01*
X866369Y283007D01*
X866571Y281987D01*
X866707Y280957D01*
X866775Y279920D01*
X866775Y278880D01*
X346075Y228080D02*
X346007Y227043D01*
X345871Y226013D01*
X345669Y224993D01*
X345400Y223989D01*
X345065Y223005D01*
X344668Y222045D01*
X344208Y221113D01*
X343688Y220212D01*
X343111Y219348D01*
X342478Y218524D01*
X341793Y217742D01*
X341058Y217007D01*
X340276Y216322D01*
X339452Y215689D01*
X338588Y215112D01*
X337687Y214592D01*
X336755Y214132D01*
X335795Y213735D01*
X334811Y213400D01*
X333807Y213131D01*
X332787Y212929D01*
X331757Y212793D01*
X330720Y212725D01*
X329680Y212725D01*
X328643Y212793D01*
X327613Y212929D01*
X326593Y213131D01*
X325589Y213400D01*
X324605Y213735D01*
X323645Y214132D01*
X322713Y214592D01*
X321812Y215112D01*
X320948Y215689D01*
X320124Y216322D01*
X319342Y217007D01*
X318607Y217742D01*
X317922Y218524D01*
X317289Y219348D01*
X316712Y220212D01*
X316192Y221113D01*
X315732Y222045D01*
X315335Y223005D01*
X315000Y223989D01*
X314731Y224993D01*
X314529Y226013D01*
X314393Y227043D01*
X314325Y228080D01*
X314325Y229120D01*
X314393Y230157D01*
X314529Y231187D01*
X314731Y232207D01*
X315000Y233211D01*
X315335Y234195D01*
X315732Y235155D01*
X316192Y236087D01*
X316712Y236988D01*
X317289Y237852D01*
X317922Y238676D01*
X318607Y239458D01*
X319342Y240193D01*
X320124Y240878D01*
X320948Y241511D01*
X321812Y242088D01*
X322713Y242608D01*
X323645Y243068D01*
X324605Y243465D01*
X325589Y243800D01*
X326593Y244069D01*
X327613Y244271D01*
X328643Y244407D01*
X329680Y244475D01*
X330720Y244475D01*
X331757Y244407D01*
X332787Y244271D01*
X333807Y244069D01*
X334811Y243800D01*
X335795Y243465D01*
X336755Y243068D01*
X337687Y242608D01*
X338588Y242088D01*
X339452Y241511D01*
X340276Y240878D01*
X341058Y240193D01*
X341793Y239458D01*
X342478Y238676D01*
X343111Y237852D01*
X343688Y236988D01*
X344208Y236087D01*
X344668Y235155D01*
X345065Y234195D01*
X345400Y233211D01*
X345669Y232207D01*
X345871Y231187D01*
X346007Y230157D01*
X346075Y229120D01*
X346075Y228080D01*
M02*
