G04 EAGLE Gerber RS-274X export*
G75*
%MOMM*%
%FSLAX34Y34*%
%LPD*%
%INSilkscreen Top*%
%IPPOS*%
%AMOC8*
5,1,8,0,0,1.08239X$1,22.5*%
G01*
%ADD10C,0.127000*%
%ADD11C,0.152400*%
%ADD12C,0.101600*%


D10*
X516781Y752616D02*
X518122Y752616D01*
X518122Y752617D02*
X518193Y752615D01*
X518265Y752609D01*
X518335Y752600D01*
X518405Y752587D01*
X518475Y752570D01*
X518543Y752549D01*
X518610Y752525D01*
X518676Y752497D01*
X518740Y752466D01*
X518803Y752431D01*
X518863Y752393D01*
X518922Y752352D01*
X518978Y752308D01*
X519032Y752261D01*
X519083Y752212D01*
X519131Y752159D01*
X519177Y752104D01*
X519219Y752047D01*
X519259Y751987D01*
X519295Y751926D01*
X519328Y751862D01*
X519357Y751797D01*
X519383Y751731D01*
X519406Y751663D01*
X519425Y751594D01*
X519440Y751524D01*
X519451Y751454D01*
X519459Y751383D01*
X519463Y751312D01*
X519463Y751240D01*
X519459Y751169D01*
X519451Y751098D01*
X519440Y751028D01*
X519425Y750958D01*
X519406Y750889D01*
X519383Y750821D01*
X519357Y750755D01*
X519328Y750690D01*
X519295Y750626D01*
X519259Y750565D01*
X519219Y750505D01*
X519177Y750448D01*
X519131Y750393D01*
X519083Y750340D01*
X519032Y750291D01*
X518978Y750244D01*
X518922Y750200D01*
X518863Y750159D01*
X518803Y750121D01*
X518740Y750086D01*
X518676Y750055D01*
X518610Y750027D01*
X518543Y750003D01*
X518475Y749982D01*
X518405Y749965D01*
X518335Y749952D01*
X518265Y749943D01*
X518193Y749937D01*
X518122Y749935D01*
X516781Y749935D01*
X516781Y754761D01*
X518122Y754761D01*
X518187Y754759D01*
X518251Y754753D01*
X518315Y754743D01*
X518379Y754730D01*
X518441Y754712D01*
X518502Y754691D01*
X518562Y754667D01*
X518620Y754638D01*
X518677Y754606D01*
X518731Y754571D01*
X518783Y754533D01*
X518833Y754491D01*
X518880Y754447D01*
X518924Y754400D01*
X518966Y754350D01*
X519004Y754298D01*
X519039Y754244D01*
X519071Y754187D01*
X519100Y754129D01*
X519124Y754069D01*
X519145Y754008D01*
X519163Y753946D01*
X519176Y753882D01*
X519186Y753818D01*
X519192Y753754D01*
X519194Y753689D01*
X519192Y753624D01*
X519186Y753560D01*
X519176Y753496D01*
X519163Y753432D01*
X519145Y753370D01*
X519124Y753309D01*
X519100Y753249D01*
X519071Y753191D01*
X519039Y753134D01*
X519004Y753080D01*
X518966Y753028D01*
X518924Y752978D01*
X518880Y752931D01*
X518833Y752887D01*
X518783Y752845D01*
X518731Y752807D01*
X518677Y752772D01*
X518620Y752740D01*
X518562Y752711D01*
X518502Y752687D01*
X518441Y752666D01*
X518379Y752648D01*
X518315Y752635D01*
X518251Y752625D01*
X518187Y752619D01*
X518122Y752617D01*
X521938Y753689D02*
X523279Y754761D01*
X523279Y749935D01*
X524619Y749935D02*
X521938Y749935D01*
X651510Y600964D02*
X651510Y375920D01*
X651510Y310896D01*
X501650Y310896D01*
X501650Y375920D01*
X501650Y600964D01*
X651510Y600964D01*
X641350Y596900D02*
X647700Y590550D01*
X647700Y552450D01*
X641350Y546100D01*
X628650Y546100D01*
X622300Y552450D01*
X615950Y546100D01*
X603250Y546100D01*
X596900Y552450D01*
X590550Y546100D01*
X577850Y546100D01*
X571500Y552450D01*
X565150Y546100D01*
X552450Y546100D01*
X546100Y552450D01*
X546100Y565150D01*
X552450Y571500D01*
X546100Y577850D01*
X546100Y590550D01*
X552450Y596900D01*
X565150Y596900D01*
X571500Y590550D01*
X577850Y596900D01*
X590550Y596900D01*
X596900Y590550D01*
X603250Y596900D01*
X615950Y596900D01*
X622300Y590550D01*
X628650Y596900D01*
X641350Y596900D01*
X651510Y375920D02*
X501650Y375920D01*
D11*
X530207Y352298D02*
X524789Y336042D01*
X535626Y336042D02*
X530207Y352298D01*
X534271Y340106D02*
X526143Y340106D01*
X541844Y336042D02*
X541844Y352298D01*
X550875Y336042D01*
X550875Y352298D01*
X561470Y352298D02*
X561470Y336042D01*
X556954Y352298D02*
X565985Y352298D01*
X572094Y336042D02*
X579319Y336042D01*
X572094Y336042D02*
X572094Y352298D01*
X579319Y352298D01*
X577513Y345073D02*
X572094Y345073D01*
X585612Y352298D02*
X585612Y336042D01*
X594643Y336042D02*
X585612Y352298D01*
X594643Y352298D02*
X594643Y336042D01*
X602285Y336042D02*
X602285Y352298D01*
X611316Y336042D01*
X611316Y352298D01*
X622953Y352298D02*
X617534Y336042D01*
X628371Y336042D02*
X622953Y352298D01*
X627017Y340106D02*
X618889Y340106D01*
D12*
X660908Y447343D02*
X672592Y447343D01*
X667399Y451238D02*
X660908Y447343D01*
X667399Y451238D02*
X660908Y455133D01*
X672592Y455133D01*
X663504Y460566D02*
X660908Y463811D01*
X672592Y463811D01*
X672592Y460566D02*
X672592Y467057D01*
D11*
X819150Y266700D02*
X831850Y266700D01*
X819150Y266700D02*
X812800Y273050D01*
X812800Y285750D02*
X819150Y292100D01*
X812800Y273050D02*
X806450Y266700D01*
X793750Y266700D01*
X787400Y273050D01*
X787400Y285750D02*
X793750Y292100D01*
X806450Y292100D01*
X812800Y285750D01*
X838200Y285750D02*
X838200Y273050D01*
X831850Y266700D01*
X838200Y285750D02*
X831850Y292100D01*
X819150Y292100D01*
X787400Y273050D02*
X781050Y266700D01*
X768350Y266700D01*
X762000Y273050D01*
X762000Y285750D02*
X768350Y292100D01*
X781050Y292100D01*
X787400Y285750D01*
X755650Y266700D02*
X742950Y266700D01*
X736600Y273050D01*
X736600Y285750D02*
X742950Y292100D01*
X736600Y273050D02*
X730250Y266700D01*
X717550Y266700D01*
X711200Y273050D01*
X711200Y285750D02*
X717550Y292100D01*
X730250Y292100D01*
X736600Y285750D01*
X755650Y266700D02*
X762000Y273050D01*
X762000Y285750D02*
X755650Y292100D01*
X742950Y292100D01*
X711200Y273050D02*
X704850Y266700D01*
X692150Y266700D01*
X685800Y273050D01*
X685800Y285750D02*
X692150Y292100D01*
X704850Y292100D01*
X711200Y285750D01*
X685800Y285750D02*
X685800Y273050D01*
D10*
X824865Y305435D02*
X828040Y307975D01*
X828040Y296545D01*
X824865Y296545D02*
X831215Y296545D01*
X701675Y257175D02*
X697865Y257175D01*
X701675Y257175D02*
X701775Y257173D01*
X701874Y257167D01*
X701974Y257157D01*
X702072Y257144D01*
X702171Y257126D01*
X702268Y257105D01*
X702364Y257080D01*
X702460Y257051D01*
X702554Y257018D01*
X702647Y256982D01*
X702738Y256942D01*
X702828Y256898D01*
X702916Y256851D01*
X703002Y256801D01*
X703086Y256747D01*
X703168Y256690D01*
X703247Y256630D01*
X703325Y256566D01*
X703399Y256500D01*
X703471Y256431D01*
X703540Y256359D01*
X703606Y256285D01*
X703670Y256207D01*
X703730Y256128D01*
X703787Y256046D01*
X703841Y255962D01*
X703891Y255876D01*
X703938Y255788D01*
X703982Y255698D01*
X704022Y255607D01*
X704058Y255514D01*
X704091Y255420D01*
X704120Y255324D01*
X704145Y255228D01*
X704166Y255131D01*
X704184Y255032D01*
X704197Y254934D01*
X704207Y254834D01*
X704213Y254735D01*
X704215Y254635D01*
X704215Y254000D01*
X704213Y253889D01*
X704207Y253779D01*
X704198Y253668D01*
X704184Y253558D01*
X704167Y253449D01*
X704146Y253340D01*
X704121Y253232D01*
X704092Y253125D01*
X704060Y253019D01*
X704024Y252914D01*
X703984Y252811D01*
X703941Y252709D01*
X703894Y252608D01*
X703843Y252509D01*
X703790Y252412D01*
X703733Y252318D01*
X703672Y252225D01*
X703609Y252134D01*
X703542Y252045D01*
X703472Y251959D01*
X703399Y251876D01*
X703324Y251794D01*
X703246Y251716D01*
X703164Y251641D01*
X703081Y251568D01*
X702995Y251498D01*
X702906Y251431D01*
X702815Y251368D01*
X702722Y251307D01*
X702628Y251250D01*
X702531Y251197D01*
X702432Y251146D01*
X702331Y251099D01*
X702229Y251056D01*
X702126Y251016D01*
X702021Y250980D01*
X701915Y250948D01*
X701808Y250919D01*
X701700Y250894D01*
X701591Y250873D01*
X701482Y250856D01*
X701372Y250842D01*
X701261Y250833D01*
X701151Y250827D01*
X701040Y250825D01*
X700929Y250827D01*
X700819Y250833D01*
X700708Y250842D01*
X700598Y250856D01*
X700489Y250873D01*
X700380Y250894D01*
X700272Y250919D01*
X700165Y250948D01*
X700059Y250980D01*
X699954Y251016D01*
X699851Y251056D01*
X699749Y251099D01*
X699648Y251146D01*
X699549Y251197D01*
X699453Y251250D01*
X699358Y251307D01*
X699265Y251368D01*
X699174Y251431D01*
X699085Y251498D01*
X698999Y251568D01*
X698916Y251641D01*
X698834Y251716D01*
X698756Y251794D01*
X698681Y251876D01*
X698608Y251959D01*
X698538Y252045D01*
X698471Y252134D01*
X698408Y252225D01*
X698347Y252318D01*
X698290Y252413D01*
X698237Y252509D01*
X698186Y252608D01*
X698139Y252709D01*
X698096Y252811D01*
X698056Y252914D01*
X698020Y253019D01*
X697988Y253125D01*
X697959Y253232D01*
X697934Y253340D01*
X697913Y253449D01*
X697896Y253558D01*
X697882Y253668D01*
X697873Y253779D01*
X697867Y253889D01*
X697865Y254000D01*
X697865Y257175D01*
X697867Y257315D01*
X697873Y257455D01*
X697882Y257595D01*
X697896Y257734D01*
X697913Y257873D01*
X697934Y258011D01*
X697959Y258149D01*
X697988Y258286D01*
X698020Y258422D01*
X698057Y258557D01*
X698097Y258691D01*
X698140Y258824D01*
X698188Y258956D01*
X698238Y259087D01*
X698293Y259216D01*
X698351Y259343D01*
X698412Y259469D01*
X698477Y259593D01*
X698546Y259715D01*
X698617Y259835D01*
X698692Y259953D01*
X698770Y260070D01*
X698852Y260184D01*
X698936Y260295D01*
X699024Y260404D01*
X699114Y260511D01*
X699208Y260616D01*
X699304Y260717D01*
X699403Y260816D01*
X699504Y260912D01*
X699609Y261006D01*
X699716Y261096D01*
X699825Y261184D01*
X699936Y261268D01*
X700050Y261350D01*
X700167Y261428D01*
X700285Y261503D01*
X700405Y261574D01*
X700527Y261643D01*
X700651Y261708D01*
X700777Y261769D01*
X700904Y261827D01*
X701033Y261882D01*
X701164Y261932D01*
X701296Y261980D01*
X701429Y262023D01*
X701563Y262063D01*
X701698Y262100D01*
X701834Y262132D01*
X701971Y262161D01*
X702109Y262186D01*
X702247Y262207D01*
X702386Y262224D01*
X702525Y262238D01*
X702665Y262247D01*
X702805Y262253D01*
X702945Y262255D01*
X812546Y250825D02*
X812646Y250827D01*
X812745Y250833D01*
X812845Y250843D01*
X812943Y250856D01*
X813042Y250874D01*
X813139Y250895D01*
X813235Y250920D01*
X813331Y250949D01*
X813425Y250982D01*
X813518Y251018D01*
X813609Y251058D01*
X813699Y251102D01*
X813787Y251149D01*
X813873Y251199D01*
X813957Y251253D01*
X814039Y251310D01*
X814118Y251370D01*
X814196Y251434D01*
X814270Y251500D01*
X814342Y251569D01*
X814411Y251641D01*
X814477Y251715D01*
X814541Y251793D01*
X814601Y251872D01*
X814658Y251954D01*
X814712Y252038D01*
X814762Y252124D01*
X814809Y252212D01*
X814853Y252302D01*
X814893Y252393D01*
X814929Y252486D01*
X814962Y252580D01*
X814991Y252676D01*
X815016Y252772D01*
X815037Y252869D01*
X815055Y252968D01*
X815068Y253066D01*
X815078Y253166D01*
X815084Y253265D01*
X815086Y253365D01*
X812546Y250825D02*
X812405Y250827D01*
X812264Y250832D01*
X812123Y250842D01*
X811982Y250855D01*
X811842Y250871D01*
X811702Y250892D01*
X811563Y250916D01*
X811424Y250944D01*
X811287Y250975D01*
X811150Y251010D01*
X811014Y251048D01*
X810879Y251090D01*
X810746Y251136D01*
X810613Y251185D01*
X810482Y251238D01*
X810353Y251294D01*
X810224Y251353D01*
X810098Y251416D01*
X809973Y251482D01*
X809850Y251551D01*
X809729Y251624D01*
X809610Y251700D01*
X809492Y251779D01*
X809377Y251860D01*
X809265Y251945D01*
X809154Y252033D01*
X809046Y252124D01*
X808940Y252217D01*
X808837Y252314D01*
X808736Y252413D01*
X809054Y259715D02*
X809056Y259815D01*
X809062Y259914D01*
X809072Y260014D01*
X809085Y260112D01*
X809103Y260211D01*
X809124Y260308D01*
X809149Y260404D01*
X809178Y260500D01*
X809211Y260594D01*
X809247Y260687D01*
X809287Y260778D01*
X809331Y260868D01*
X809378Y260956D01*
X809428Y261042D01*
X809482Y261126D01*
X809539Y261208D01*
X809599Y261287D01*
X809663Y261365D01*
X809729Y261439D01*
X809798Y261511D01*
X809870Y261580D01*
X809944Y261646D01*
X810022Y261710D01*
X810101Y261770D01*
X810183Y261827D01*
X810267Y261881D01*
X810353Y261931D01*
X810441Y261978D01*
X810531Y262022D01*
X810622Y262062D01*
X810715Y262098D01*
X810809Y262131D01*
X810905Y262160D01*
X811001Y262185D01*
X811098Y262206D01*
X811197Y262224D01*
X811295Y262237D01*
X811395Y262247D01*
X811494Y262253D01*
X811594Y262255D01*
X811594Y262256D02*
X811727Y262254D01*
X811860Y262249D01*
X811993Y262239D01*
X812126Y262226D01*
X812258Y262209D01*
X812390Y262189D01*
X812521Y262165D01*
X812651Y262137D01*
X812781Y262106D01*
X812909Y262071D01*
X813037Y262032D01*
X813163Y261990D01*
X813288Y261944D01*
X813412Y261895D01*
X813535Y261843D01*
X813656Y261787D01*
X813775Y261727D01*
X813893Y261665D01*
X814008Y261599D01*
X814122Y261530D01*
X814234Y261457D01*
X814344Y261382D01*
X814452Y261303D01*
X810323Y257492D02*
X810239Y257544D01*
X810156Y257599D01*
X810076Y257658D01*
X809998Y257719D01*
X809923Y257783D01*
X809850Y257851D01*
X809779Y257921D01*
X809712Y257993D01*
X809647Y258068D01*
X809585Y258146D01*
X809526Y258226D01*
X809470Y258308D01*
X809418Y258392D01*
X809369Y258478D01*
X809323Y258566D01*
X809280Y258656D01*
X809241Y258747D01*
X809206Y258840D01*
X809174Y258934D01*
X809146Y259029D01*
X809121Y259125D01*
X809101Y259222D01*
X809083Y259320D01*
X809070Y259418D01*
X809061Y259517D01*
X809055Y259616D01*
X809053Y259715D01*
X813816Y255588D02*
X813900Y255536D01*
X813983Y255481D01*
X814063Y255422D01*
X814141Y255361D01*
X814216Y255297D01*
X814289Y255229D01*
X814360Y255159D01*
X814427Y255087D01*
X814492Y255012D01*
X814554Y254934D01*
X814613Y254854D01*
X814669Y254772D01*
X814721Y254688D01*
X814770Y254602D01*
X814816Y254514D01*
X814859Y254424D01*
X814898Y254333D01*
X814933Y254240D01*
X814965Y254146D01*
X814993Y254051D01*
X815018Y253955D01*
X815038Y253858D01*
X815056Y253760D01*
X815069Y253662D01*
X815078Y253563D01*
X815084Y253464D01*
X815086Y253365D01*
X813816Y255588D02*
X810324Y257493D01*
X819150Y262255D02*
X822960Y250825D01*
X826770Y262255D01*
X831215Y259715D02*
X834390Y262255D01*
X834390Y250825D01*
X831215Y250825D02*
X837565Y250825D01*
D11*
X654050Y673100D02*
X641350Y673100D01*
X654050Y673100D02*
X660400Y666750D01*
X660400Y654050D02*
X654050Y647700D01*
X660400Y666750D02*
X666750Y673100D01*
X679450Y673100D01*
X685800Y666750D01*
X685800Y654050D02*
X679450Y647700D01*
X666750Y647700D01*
X660400Y654050D01*
X635000Y654050D02*
X635000Y666750D01*
X641350Y673100D01*
X635000Y654050D02*
X641350Y647700D01*
X654050Y647700D01*
X685800Y666750D02*
X692150Y673100D01*
X704850Y673100D01*
X711200Y666750D01*
X711200Y654050D02*
X704850Y647700D01*
X692150Y647700D01*
X685800Y654050D01*
X717550Y673100D02*
X730250Y673100D01*
X736600Y666750D01*
X736600Y654050D02*
X730250Y647700D01*
X711200Y666750D02*
X717550Y673100D01*
X711200Y654050D02*
X717550Y647700D01*
X730250Y647700D01*
X742950Y673100D02*
X755650Y673100D01*
X762000Y666750D01*
X762000Y654050D02*
X755650Y647700D01*
X762000Y666750D02*
X768350Y673100D01*
X781050Y673100D01*
X787400Y666750D01*
X787400Y654050D02*
X781050Y647700D01*
X768350Y647700D01*
X762000Y654050D01*
X742950Y673100D02*
X736600Y666750D01*
X736600Y654050D02*
X742950Y647700D01*
X755650Y647700D01*
X787400Y666750D02*
X793750Y673100D01*
X806450Y673100D01*
X812800Y666750D01*
X812800Y654050D02*
X806450Y647700D01*
X793750Y647700D01*
X787400Y654050D01*
X819150Y673100D02*
X831850Y673100D01*
X838200Y666750D01*
X838200Y654050D01*
X831850Y647700D01*
X812800Y666750D02*
X819150Y673100D01*
X812800Y654050D02*
X819150Y647700D01*
X831850Y647700D01*
D10*
X646430Y643255D02*
X643255Y640715D01*
X646430Y643255D02*
X646430Y631825D01*
X643255Y631825D02*
X649605Y631825D01*
X819785Y680720D02*
X819787Y680831D01*
X819793Y680941D01*
X819802Y681052D01*
X819816Y681162D01*
X819833Y681271D01*
X819854Y681380D01*
X819879Y681488D01*
X819908Y681595D01*
X819940Y681701D01*
X819976Y681806D01*
X820016Y681909D01*
X820059Y682011D01*
X820106Y682112D01*
X820157Y682211D01*
X820210Y682308D01*
X820267Y682402D01*
X820328Y682495D01*
X820391Y682586D01*
X820458Y682675D01*
X820528Y682761D01*
X820601Y682844D01*
X820676Y682926D01*
X820754Y683004D01*
X820836Y683079D01*
X820919Y683152D01*
X821005Y683222D01*
X821094Y683289D01*
X821185Y683352D01*
X821278Y683413D01*
X821373Y683470D01*
X821469Y683523D01*
X821568Y683574D01*
X821669Y683621D01*
X821771Y683664D01*
X821874Y683704D01*
X821979Y683740D01*
X822085Y683772D01*
X822192Y683801D01*
X822300Y683826D01*
X822409Y683847D01*
X822518Y683864D01*
X822628Y683878D01*
X822739Y683887D01*
X822849Y683893D01*
X822960Y683895D01*
X823071Y683893D01*
X823181Y683887D01*
X823292Y683878D01*
X823402Y683864D01*
X823511Y683847D01*
X823620Y683826D01*
X823728Y683801D01*
X823835Y683772D01*
X823941Y683740D01*
X824046Y683704D01*
X824149Y683664D01*
X824251Y683621D01*
X824352Y683574D01*
X824451Y683523D01*
X824548Y683470D01*
X824642Y683413D01*
X824735Y683352D01*
X824826Y683289D01*
X824915Y683222D01*
X825001Y683152D01*
X825084Y683079D01*
X825166Y683004D01*
X825244Y682926D01*
X825319Y682844D01*
X825392Y682761D01*
X825462Y682675D01*
X825529Y682586D01*
X825592Y682495D01*
X825653Y682402D01*
X825710Y682308D01*
X825763Y682211D01*
X825814Y682112D01*
X825861Y682011D01*
X825904Y681909D01*
X825944Y681806D01*
X825980Y681701D01*
X826012Y681595D01*
X826041Y681488D01*
X826066Y681380D01*
X826087Y681271D01*
X826104Y681162D01*
X826118Y681052D01*
X826127Y680941D01*
X826133Y680831D01*
X826135Y680720D01*
X826133Y680609D01*
X826127Y680499D01*
X826118Y680388D01*
X826104Y680278D01*
X826087Y680169D01*
X826066Y680060D01*
X826041Y679952D01*
X826012Y679845D01*
X825980Y679739D01*
X825944Y679634D01*
X825904Y679531D01*
X825861Y679429D01*
X825814Y679328D01*
X825763Y679229D01*
X825710Y679133D01*
X825653Y679038D01*
X825592Y678945D01*
X825529Y678854D01*
X825462Y678765D01*
X825392Y678679D01*
X825319Y678596D01*
X825244Y678514D01*
X825166Y678436D01*
X825084Y678361D01*
X825001Y678288D01*
X824915Y678218D01*
X824826Y678151D01*
X824735Y678088D01*
X824642Y678027D01*
X824548Y677970D01*
X824451Y677917D01*
X824352Y677866D01*
X824251Y677819D01*
X824149Y677776D01*
X824046Y677736D01*
X823941Y677700D01*
X823835Y677668D01*
X823728Y677639D01*
X823620Y677614D01*
X823511Y677593D01*
X823402Y677576D01*
X823292Y677562D01*
X823181Y677553D01*
X823071Y677547D01*
X822960Y677545D01*
X822849Y677547D01*
X822739Y677553D01*
X822628Y677562D01*
X822518Y677576D01*
X822409Y677593D01*
X822300Y677614D01*
X822192Y677639D01*
X822085Y677668D01*
X821979Y677700D01*
X821874Y677736D01*
X821771Y677776D01*
X821669Y677819D01*
X821568Y677866D01*
X821469Y677917D01*
X821373Y677970D01*
X821278Y678027D01*
X821185Y678088D01*
X821094Y678151D01*
X821005Y678218D01*
X820919Y678288D01*
X820836Y678361D01*
X820754Y678436D01*
X820676Y678514D01*
X820601Y678596D01*
X820528Y678679D01*
X820458Y678765D01*
X820391Y678854D01*
X820328Y678945D01*
X820267Y679038D01*
X820210Y679133D01*
X820157Y679229D01*
X820106Y679328D01*
X820059Y679429D01*
X820016Y679531D01*
X819976Y679634D01*
X819940Y679739D01*
X819908Y679845D01*
X819879Y679952D01*
X819854Y680060D01*
X819833Y680169D01*
X819816Y680278D01*
X819802Y680388D01*
X819793Y680499D01*
X819787Y680609D01*
X819785Y680720D01*
X820420Y686435D02*
X820422Y686535D01*
X820428Y686634D01*
X820438Y686734D01*
X820451Y686832D01*
X820469Y686931D01*
X820490Y687028D01*
X820515Y687124D01*
X820544Y687220D01*
X820577Y687314D01*
X820613Y687407D01*
X820653Y687498D01*
X820697Y687588D01*
X820744Y687676D01*
X820794Y687762D01*
X820848Y687846D01*
X820905Y687928D01*
X820965Y688007D01*
X821029Y688085D01*
X821095Y688159D01*
X821164Y688231D01*
X821236Y688300D01*
X821310Y688366D01*
X821388Y688430D01*
X821467Y688490D01*
X821549Y688547D01*
X821633Y688601D01*
X821719Y688651D01*
X821807Y688698D01*
X821897Y688742D01*
X821988Y688782D01*
X822081Y688818D01*
X822175Y688851D01*
X822271Y688880D01*
X822367Y688905D01*
X822464Y688926D01*
X822563Y688944D01*
X822661Y688957D01*
X822761Y688967D01*
X822860Y688973D01*
X822960Y688975D01*
X823060Y688973D01*
X823159Y688967D01*
X823259Y688957D01*
X823357Y688944D01*
X823456Y688926D01*
X823553Y688905D01*
X823649Y688880D01*
X823745Y688851D01*
X823839Y688818D01*
X823932Y688782D01*
X824023Y688742D01*
X824113Y688698D01*
X824201Y688651D01*
X824287Y688601D01*
X824371Y688547D01*
X824453Y688490D01*
X824532Y688430D01*
X824610Y688366D01*
X824684Y688300D01*
X824756Y688231D01*
X824825Y688159D01*
X824891Y688085D01*
X824955Y688007D01*
X825015Y687928D01*
X825072Y687846D01*
X825126Y687762D01*
X825176Y687676D01*
X825223Y687588D01*
X825267Y687498D01*
X825307Y687407D01*
X825343Y687314D01*
X825376Y687220D01*
X825405Y687124D01*
X825430Y687028D01*
X825451Y686931D01*
X825469Y686832D01*
X825482Y686734D01*
X825492Y686634D01*
X825498Y686535D01*
X825500Y686435D01*
X825498Y686335D01*
X825492Y686236D01*
X825482Y686136D01*
X825469Y686038D01*
X825451Y685939D01*
X825430Y685842D01*
X825405Y685746D01*
X825376Y685650D01*
X825343Y685556D01*
X825307Y685463D01*
X825267Y685372D01*
X825223Y685282D01*
X825176Y685194D01*
X825126Y685108D01*
X825072Y685024D01*
X825015Y684942D01*
X824955Y684863D01*
X824891Y684785D01*
X824825Y684711D01*
X824756Y684639D01*
X824684Y684570D01*
X824610Y684504D01*
X824532Y684440D01*
X824453Y684380D01*
X824371Y684323D01*
X824287Y684269D01*
X824201Y684219D01*
X824113Y684172D01*
X824023Y684128D01*
X823932Y684088D01*
X823839Y684052D01*
X823745Y684019D01*
X823649Y683990D01*
X823553Y683965D01*
X823456Y683944D01*
X823357Y683926D01*
X823259Y683913D01*
X823159Y683903D01*
X823060Y683897D01*
X822960Y683895D01*
X822860Y683897D01*
X822761Y683903D01*
X822661Y683913D01*
X822563Y683926D01*
X822464Y683944D01*
X822367Y683965D01*
X822271Y683990D01*
X822175Y684019D01*
X822081Y684052D01*
X821988Y684088D01*
X821897Y684128D01*
X821807Y684172D01*
X821719Y684219D01*
X821633Y684269D01*
X821549Y684323D01*
X821467Y684380D01*
X821388Y684440D01*
X821310Y684504D01*
X821236Y684570D01*
X821164Y684639D01*
X821095Y684711D01*
X821029Y684785D01*
X820965Y684863D01*
X820905Y684942D01*
X820848Y685024D01*
X820794Y685108D01*
X820744Y685194D01*
X820697Y685282D01*
X820653Y685372D01*
X820613Y685463D01*
X820577Y685556D01*
X820544Y685650D01*
X820515Y685746D01*
X820490Y685842D01*
X820469Y685939D01*
X820451Y686038D01*
X820438Y686136D01*
X820428Y686236D01*
X820422Y686335D01*
X820420Y686435D01*
X641985Y680085D02*
X641983Y679985D01*
X641977Y679886D01*
X641967Y679786D01*
X641954Y679688D01*
X641936Y679589D01*
X641915Y679492D01*
X641890Y679396D01*
X641861Y679300D01*
X641828Y679206D01*
X641792Y679113D01*
X641752Y679022D01*
X641708Y678932D01*
X641661Y678844D01*
X641611Y678758D01*
X641557Y678674D01*
X641500Y678592D01*
X641440Y678513D01*
X641376Y678435D01*
X641310Y678361D01*
X641241Y678289D01*
X641169Y678220D01*
X641095Y678154D01*
X641017Y678090D01*
X640938Y678030D01*
X640856Y677973D01*
X640772Y677919D01*
X640686Y677869D01*
X640598Y677822D01*
X640508Y677778D01*
X640417Y677738D01*
X640324Y677702D01*
X640230Y677669D01*
X640134Y677640D01*
X640038Y677615D01*
X639941Y677594D01*
X639842Y677576D01*
X639744Y677563D01*
X639644Y677553D01*
X639545Y677547D01*
X639445Y677545D01*
X639304Y677547D01*
X639163Y677552D01*
X639022Y677562D01*
X638881Y677575D01*
X638741Y677591D01*
X638601Y677612D01*
X638462Y677636D01*
X638323Y677664D01*
X638186Y677695D01*
X638049Y677730D01*
X637913Y677768D01*
X637778Y677810D01*
X637645Y677856D01*
X637512Y677905D01*
X637381Y677958D01*
X637252Y678014D01*
X637123Y678073D01*
X636997Y678136D01*
X636872Y678202D01*
X636749Y678271D01*
X636628Y678344D01*
X636509Y678420D01*
X636391Y678499D01*
X636276Y678580D01*
X636164Y678665D01*
X636053Y678753D01*
X635945Y678844D01*
X635839Y678937D01*
X635736Y679034D01*
X635635Y679133D01*
X635953Y686435D02*
X635955Y686535D01*
X635961Y686634D01*
X635971Y686734D01*
X635984Y686832D01*
X636002Y686931D01*
X636023Y687028D01*
X636048Y687124D01*
X636077Y687220D01*
X636110Y687314D01*
X636146Y687407D01*
X636186Y687498D01*
X636230Y687588D01*
X636277Y687676D01*
X636327Y687762D01*
X636381Y687846D01*
X636438Y687928D01*
X636498Y688007D01*
X636562Y688085D01*
X636628Y688159D01*
X636697Y688231D01*
X636769Y688300D01*
X636843Y688366D01*
X636921Y688430D01*
X637000Y688490D01*
X637082Y688547D01*
X637166Y688601D01*
X637252Y688651D01*
X637340Y688698D01*
X637430Y688742D01*
X637521Y688782D01*
X637614Y688818D01*
X637708Y688851D01*
X637804Y688880D01*
X637900Y688905D01*
X637997Y688926D01*
X638096Y688944D01*
X638194Y688957D01*
X638294Y688967D01*
X638393Y688973D01*
X638493Y688975D01*
X638493Y688976D02*
X638626Y688974D01*
X638759Y688969D01*
X638892Y688959D01*
X639025Y688946D01*
X639157Y688929D01*
X639289Y688909D01*
X639420Y688885D01*
X639550Y688857D01*
X639680Y688826D01*
X639808Y688791D01*
X639936Y688752D01*
X640062Y688710D01*
X640187Y688664D01*
X640311Y688615D01*
X640434Y688563D01*
X640555Y688507D01*
X640674Y688447D01*
X640792Y688385D01*
X640907Y688319D01*
X641021Y688250D01*
X641133Y688177D01*
X641243Y688102D01*
X641351Y688023D01*
X637222Y684212D02*
X637138Y684264D01*
X637055Y684319D01*
X636975Y684378D01*
X636897Y684439D01*
X636822Y684503D01*
X636749Y684571D01*
X636678Y684641D01*
X636611Y684713D01*
X636546Y684788D01*
X636484Y684866D01*
X636425Y684946D01*
X636369Y685028D01*
X636317Y685112D01*
X636268Y685198D01*
X636222Y685286D01*
X636179Y685376D01*
X636140Y685467D01*
X636105Y685560D01*
X636073Y685654D01*
X636045Y685749D01*
X636020Y685845D01*
X636000Y685942D01*
X635982Y686040D01*
X635969Y686138D01*
X635960Y686237D01*
X635954Y686336D01*
X635952Y686435D01*
X640715Y682308D02*
X640799Y682256D01*
X640882Y682201D01*
X640962Y682142D01*
X641040Y682081D01*
X641115Y682017D01*
X641188Y681949D01*
X641259Y681879D01*
X641326Y681807D01*
X641391Y681732D01*
X641453Y681654D01*
X641512Y681574D01*
X641568Y681492D01*
X641620Y681408D01*
X641669Y681322D01*
X641715Y681234D01*
X641758Y681144D01*
X641797Y681053D01*
X641832Y680960D01*
X641864Y680866D01*
X641892Y680771D01*
X641917Y680675D01*
X641937Y680578D01*
X641955Y680480D01*
X641968Y680382D01*
X641977Y680283D01*
X641983Y680184D01*
X641985Y680085D01*
X640715Y682308D02*
X637223Y684213D01*
X646049Y688975D02*
X649859Y677545D01*
X653669Y688975D01*
X660654Y688975D02*
X658114Y680085D01*
X664464Y680085D01*
X662559Y682625D02*
X662559Y677545D01*
D11*
X476250Y292100D02*
X463550Y292100D01*
X476250Y292100D02*
X482600Y285750D01*
X482600Y273050D02*
X476250Y266700D01*
X482600Y285750D02*
X488950Y292100D01*
X501650Y292100D01*
X508000Y285750D01*
X508000Y273050D02*
X501650Y266700D01*
X488950Y266700D01*
X482600Y273050D01*
X457200Y273050D02*
X457200Y285750D01*
X463550Y292100D01*
X457200Y273050D02*
X463550Y266700D01*
X476250Y266700D01*
X508000Y285750D02*
X514350Y292100D01*
X527050Y292100D01*
X533400Y285750D01*
X533400Y273050D02*
X527050Y266700D01*
X514350Y266700D01*
X508000Y273050D01*
X539750Y292100D02*
X552450Y292100D01*
X558800Y285750D01*
X558800Y273050D02*
X552450Y266700D01*
X533400Y285750D02*
X539750Y292100D01*
X533400Y273050D02*
X539750Y266700D01*
X552450Y266700D01*
X565150Y292100D02*
X577850Y292100D01*
X584200Y285750D01*
X584200Y273050D02*
X577850Y266700D01*
X584200Y285750D02*
X590550Y292100D01*
X603250Y292100D01*
X609600Y285750D01*
X609600Y273050D02*
X603250Y266700D01*
X590550Y266700D01*
X584200Y273050D01*
X565150Y292100D02*
X558800Y285750D01*
X558800Y273050D02*
X565150Y266700D01*
X577850Y266700D01*
X609600Y285750D02*
X615950Y292100D01*
X628650Y292100D01*
X635000Y285750D01*
X635000Y273050D02*
X628650Y266700D01*
X615950Y266700D01*
X609600Y273050D01*
X641350Y292100D02*
X654050Y292100D01*
X660400Y285750D01*
X660400Y273050D01*
X654050Y266700D01*
X635000Y285750D02*
X641350Y292100D01*
X635000Y273050D02*
X641350Y266700D01*
X654050Y266700D01*
D10*
X468630Y262255D02*
X465455Y259715D01*
X468630Y262255D02*
X468630Y250825D01*
X465455Y250825D02*
X471805Y250825D01*
X641985Y299720D02*
X641987Y299831D01*
X641993Y299941D01*
X642002Y300052D01*
X642016Y300162D01*
X642033Y300271D01*
X642054Y300380D01*
X642079Y300488D01*
X642108Y300595D01*
X642140Y300701D01*
X642176Y300806D01*
X642216Y300909D01*
X642259Y301011D01*
X642306Y301112D01*
X642357Y301211D01*
X642410Y301308D01*
X642467Y301402D01*
X642528Y301495D01*
X642591Y301586D01*
X642658Y301675D01*
X642728Y301761D01*
X642801Y301844D01*
X642876Y301926D01*
X642954Y302004D01*
X643036Y302079D01*
X643119Y302152D01*
X643205Y302222D01*
X643294Y302289D01*
X643385Y302352D01*
X643478Y302413D01*
X643573Y302470D01*
X643669Y302523D01*
X643768Y302574D01*
X643869Y302621D01*
X643971Y302664D01*
X644074Y302704D01*
X644179Y302740D01*
X644285Y302772D01*
X644392Y302801D01*
X644500Y302826D01*
X644609Y302847D01*
X644718Y302864D01*
X644828Y302878D01*
X644939Y302887D01*
X645049Y302893D01*
X645160Y302895D01*
X645271Y302893D01*
X645381Y302887D01*
X645492Y302878D01*
X645602Y302864D01*
X645711Y302847D01*
X645820Y302826D01*
X645928Y302801D01*
X646035Y302772D01*
X646141Y302740D01*
X646246Y302704D01*
X646349Y302664D01*
X646451Y302621D01*
X646552Y302574D01*
X646651Y302523D01*
X646748Y302470D01*
X646842Y302413D01*
X646935Y302352D01*
X647026Y302289D01*
X647115Y302222D01*
X647201Y302152D01*
X647284Y302079D01*
X647366Y302004D01*
X647444Y301926D01*
X647519Y301844D01*
X647592Y301761D01*
X647662Y301675D01*
X647729Y301586D01*
X647792Y301495D01*
X647853Y301402D01*
X647910Y301308D01*
X647963Y301211D01*
X648014Y301112D01*
X648061Y301011D01*
X648104Y300909D01*
X648144Y300806D01*
X648180Y300701D01*
X648212Y300595D01*
X648241Y300488D01*
X648266Y300380D01*
X648287Y300271D01*
X648304Y300162D01*
X648318Y300052D01*
X648327Y299941D01*
X648333Y299831D01*
X648335Y299720D01*
X648333Y299609D01*
X648327Y299499D01*
X648318Y299388D01*
X648304Y299278D01*
X648287Y299169D01*
X648266Y299060D01*
X648241Y298952D01*
X648212Y298845D01*
X648180Y298739D01*
X648144Y298634D01*
X648104Y298531D01*
X648061Y298429D01*
X648014Y298328D01*
X647963Y298229D01*
X647910Y298132D01*
X647853Y298038D01*
X647792Y297945D01*
X647729Y297854D01*
X647662Y297765D01*
X647592Y297679D01*
X647519Y297596D01*
X647444Y297514D01*
X647366Y297436D01*
X647284Y297361D01*
X647201Y297288D01*
X647115Y297218D01*
X647026Y297151D01*
X646935Y297088D01*
X646842Y297027D01*
X646748Y296970D01*
X646651Y296917D01*
X646552Y296866D01*
X646451Y296819D01*
X646349Y296776D01*
X646246Y296736D01*
X646141Y296700D01*
X646035Y296668D01*
X645928Y296639D01*
X645820Y296614D01*
X645711Y296593D01*
X645602Y296576D01*
X645492Y296562D01*
X645381Y296553D01*
X645271Y296547D01*
X645160Y296545D01*
X645049Y296547D01*
X644939Y296553D01*
X644828Y296562D01*
X644718Y296576D01*
X644609Y296593D01*
X644500Y296614D01*
X644392Y296639D01*
X644285Y296668D01*
X644179Y296700D01*
X644074Y296736D01*
X643971Y296776D01*
X643869Y296819D01*
X643768Y296866D01*
X643669Y296917D01*
X643573Y296970D01*
X643478Y297027D01*
X643385Y297088D01*
X643294Y297151D01*
X643205Y297218D01*
X643119Y297288D01*
X643036Y297361D01*
X642954Y297436D01*
X642876Y297514D01*
X642801Y297596D01*
X642728Y297679D01*
X642658Y297765D01*
X642591Y297854D01*
X642528Y297945D01*
X642467Y298038D01*
X642410Y298133D01*
X642357Y298229D01*
X642306Y298328D01*
X642259Y298429D01*
X642216Y298531D01*
X642176Y298634D01*
X642140Y298739D01*
X642108Y298845D01*
X642079Y298952D01*
X642054Y299060D01*
X642033Y299169D01*
X642016Y299278D01*
X642002Y299388D01*
X641993Y299499D01*
X641987Y299609D01*
X641985Y299720D01*
X642620Y305435D02*
X642622Y305535D01*
X642628Y305634D01*
X642638Y305734D01*
X642651Y305832D01*
X642669Y305931D01*
X642690Y306028D01*
X642715Y306124D01*
X642744Y306220D01*
X642777Y306314D01*
X642813Y306407D01*
X642853Y306498D01*
X642897Y306588D01*
X642944Y306676D01*
X642994Y306762D01*
X643048Y306846D01*
X643105Y306928D01*
X643165Y307007D01*
X643229Y307085D01*
X643295Y307159D01*
X643364Y307231D01*
X643436Y307300D01*
X643510Y307366D01*
X643588Y307430D01*
X643667Y307490D01*
X643749Y307547D01*
X643833Y307601D01*
X643919Y307651D01*
X644007Y307698D01*
X644097Y307742D01*
X644188Y307782D01*
X644281Y307818D01*
X644375Y307851D01*
X644471Y307880D01*
X644567Y307905D01*
X644664Y307926D01*
X644763Y307944D01*
X644861Y307957D01*
X644961Y307967D01*
X645060Y307973D01*
X645160Y307975D01*
X645260Y307973D01*
X645359Y307967D01*
X645459Y307957D01*
X645557Y307944D01*
X645656Y307926D01*
X645753Y307905D01*
X645849Y307880D01*
X645945Y307851D01*
X646039Y307818D01*
X646132Y307782D01*
X646223Y307742D01*
X646313Y307698D01*
X646401Y307651D01*
X646487Y307601D01*
X646571Y307547D01*
X646653Y307490D01*
X646732Y307430D01*
X646810Y307366D01*
X646884Y307300D01*
X646956Y307231D01*
X647025Y307159D01*
X647091Y307085D01*
X647155Y307007D01*
X647215Y306928D01*
X647272Y306846D01*
X647326Y306762D01*
X647376Y306676D01*
X647423Y306588D01*
X647467Y306498D01*
X647507Y306407D01*
X647543Y306314D01*
X647576Y306220D01*
X647605Y306124D01*
X647630Y306028D01*
X647651Y305931D01*
X647669Y305832D01*
X647682Y305734D01*
X647692Y305634D01*
X647698Y305535D01*
X647700Y305435D01*
X647698Y305335D01*
X647692Y305236D01*
X647682Y305136D01*
X647669Y305038D01*
X647651Y304939D01*
X647630Y304842D01*
X647605Y304746D01*
X647576Y304650D01*
X647543Y304556D01*
X647507Y304463D01*
X647467Y304372D01*
X647423Y304282D01*
X647376Y304194D01*
X647326Y304108D01*
X647272Y304024D01*
X647215Y303942D01*
X647155Y303863D01*
X647091Y303785D01*
X647025Y303711D01*
X646956Y303639D01*
X646884Y303570D01*
X646810Y303504D01*
X646732Y303440D01*
X646653Y303380D01*
X646571Y303323D01*
X646487Y303269D01*
X646401Y303219D01*
X646313Y303172D01*
X646223Y303128D01*
X646132Y303088D01*
X646039Y303052D01*
X645945Y303019D01*
X645849Y302990D01*
X645753Y302965D01*
X645656Y302944D01*
X645557Y302926D01*
X645459Y302913D01*
X645359Y302903D01*
X645260Y302897D01*
X645160Y302895D01*
X645060Y302897D01*
X644961Y302903D01*
X644861Y302913D01*
X644763Y302926D01*
X644664Y302944D01*
X644567Y302965D01*
X644471Y302990D01*
X644375Y303019D01*
X644281Y303052D01*
X644188Y303088D01*
X644097Y303128D01*
X644007Y303172D01*
X643919Y303219D01*
X643833Y303269D01*
X643749Y303323D01*
X643667Y303380D01*
X643588Y303440D01*
X643510Y303504D01*
X643436Y303570D01*
X643364Y303639D01*
X643295Y303711D01*
X643229Y303785D01*
X643165Y303863D01*
X643105Y303942D01*
X643048Y304024D01*
X642994Y304108D01*
X642944Y304194D01*
X642897Y304282D01*
X642853Y304372D01*
X642813Y304463D01*
X642777Y304556D01*
X642744Y304650D01*
X642715Y304746D01*
X642690Y304842D01*
X642669Y304939D01*
X642651Y305038D01*
X642638Y305136D01*
X642628Y305236D01*
X642622Y305335D01*
X642620Y305435D01*
X464185Y299085D02*
X464183Y298985D01*
X464177Y298886D01*
X464167Y298786D01*
X464154Y298688D01*
X464136Y298589D01*
X464115Y298492D01*
X464090Y298396D01*
X464061Y298300D01*
X464028Y298206D01*
X463992Y298113D01*
X463952Y298022D01*
X463908Y297932D01*
X463861Y297844D01*
X463811Y297758D01*
X463757Y297674D01*
X463700Y297592D01*
X463640Y297513D01*
X463576Y297435D01*
X463510Y297361D01*
X463441Y297289D01*
X463369Y297220D01*
X463295Y297154D01*
X463217Y297090D01*
X463138Y297030D01*
X463056Y296973D01*
X462972Y296919D01*
X462886Y296869D01*
X462798Y296822D01*
X462708Y296778D01*
X462617Y296738D01*
X462524Y296702D01*
X462430Y296669D01*
X462334Y296640D01*
X462238Y296615D01*
X462141Y296594D01*
X462042Y296576D01*
X461944Y296563D01*
X461844Y296553D01*
X461745Y296547D01*
X461645Y296545D01*
X461504Y296547D01*
X461363Y296552D01*
X461222Y296562D01*
X461081Y296575D01*
X460941Y296591D01*
X460801Y296612D01*
X460662Y296636D01*
X460523Y296664D01*
X460386Y296695D01*
X460249Y296730D01*
X460113Y296768D01*
X459978Y296810D01*
X459845Y296856D01*
X459712Y296905D01*
X459581Y296958D01*
X459452Y297014D01*
X459323Y297073D01*
X459197Y297136D01*
X459072Y297202D01*
X458949Y297271D01*
X458828Y297344D01*
X458709Y297420D01*
X458591Y297499D01*
X458476Y297580D01*
X458364Y297665D01*
X458253Y297753D01*
X458145Y297844D01*
X458039Y297937D01*
X457936Y298034D01*
X457835Y298133D01*
X458153Y305435D02*
X458155Y305535D01*
X458161Y305634D01*
X458171Y305734D01*
X458184Y305832D01*
X458202Y305931D01*
X458223Y306028D01*
X458248Y306124D01*
X458277Y306220D01*
X458310Y306314D01*
X458346Y306407D01*
X458386Y306498D01*
X458430Y306588D01*
X458477Y306676D01*
X458527Y306762D01*
X458581Y306846D01*
X458638Y306928D01*
X458698Y307007D01*
X458762Y307085D01*
X458828Y307159D01*
X458897Y307231D01*
X458969Y307300D01*
X459043Y307366D01*
X459121Y307430D01*
X459200Y307490D01*
X459282Y307547D01*
X459366Y307601D01*
X459452Y307651D01*
X459540Y307698D01*
X459630Y307742D01*
X459721Y307782D01*
X459814Y307818D01*
X459908Y307851D01*
X460004Y307880D01*
X460100Y307905D01*
X460197Y307926D01*
X460296Y307944D01*
X460394Y307957D01*
X460494Y307967D01*
X460593Y307973D01*
X460693Y307975D01*
X460693Y307976D02*
X460826Y307974D01*
X460959Y307969D01*
X461092Y307959D01*
X461225Y307946D01*
X461357Y307929D01*
X461489Y307909D01*
X461620Y307885D01*
X461750Y307857D01*
X461880Y307826D01*
X462008Y307791D01*
X462136Y307752D01*
X462262Y307710D01*
X462387Y307664D01*
X462511Y307615D01*
X462634Y307563D01*
X462755Y307507D01*
X462874Y307447D01*
X462992Y307385D01*
X463107Y307319D01*
X463221Y307250D01*
X463333Y307177D01*
X463443Y307102D01*
X463551Y307023D01*
X459422Y303212D02*
X459338Y303264D01*
X459255Y303319D01*
X459175Y303378D01*
X459097Y303439D01*
X459022Y303503D01*
X458949Y303571D01*
X458878Y303641D01*
X458811Y303713D01*
X458746Y303788D01*
X458684Y303866D01*
X458625Y303946D01*
X458569Y304028D01*
X458517Y304112D01*
X458468Y304198D01*
X458422Y304286D01*
X458379Y304376D01*
X458340Y304467D01*
X458305Y304560D01*
X458273Y304654D01*
X458245Y304749D01*
X458220Y304845D01*
X458200Y304942D01*
X458182Y305040D01*
X458169Y305138D01*
X458160Y305237D01*
X458154Y305336D01*
X458152Y305435D01*
X462915Y301308D02*
X462999Y301256D01*
X463082Y301201D01*
X463162Y301142D01*
X463240Y301081D01*
X463315Y301017D01*
X463388Y300949D01*
X463459Y300879D01*
X463526Y300807D01*
X463591Y300732D01*
X463653Y300654D01*
X463712Y300574D01*
X463768Y300492D01*
X463820Y300408D01*
X463869Y300322D01*
X463915Y300234D01*
X463958Y300144D01*
X463997Y300053D01*
X464032Y299960D01*
X464064Y299866D01*
X464092Y299771D01*
X464117Y299675D01*
X464137Y299578D01*
X464155Y299480D01*
X464168Y299382D01*
X464177Y299283D01*
X464183Y299184D01*
X464185Y299085D01*
X462915Y301308D02*
X459423Y303213D01*
X468249Y307975D02*
X472059Y296545D01*
X475869Y307975D01*
X480314Y296545D02*
X484124Y296545D01*
X484224Y296547D01*
X484323Y296553D01*
X484423Y296563D01*
X484521Y296576D01*
X484620Y296594D01*
X484717Y296615D01*
X484813Y296640D01*
X484909Y296669D01*
X485003Y296702D01*
X485096Y296738D01*
X485187Y296778D01*
X485277Y296822D01*
X485365Y296869D01*
X485451Y296919D01*
X485535Y296973D01*
X485617Y297030D01*
X485696Y297090D01*
X485774Y297154D01*
X485848Y297220D01*
X485920Y297289D01*
X485989Y297361D01*
X486055Y297435D01*
X486119Y297513D01*
X486179Y297592D01*
X486236Y297674D01*
X486290Y297758D01*
X486340Y297844D01*
X486387Y297932D01*
X486431Y298022D01*
X486471Y298113D01*
X486507Y298206D01*
X486540Y298300D01*
X486569Y298396D01*
X486594Y298492D01*
X486615Y298589D01*
X486633Y298688D01*
X486646Y298786D01*
X486656Y298886D01*
X486662Y298985D01*
X486664Y299085D01*
X486664Y300355D01*
X486662Y300455D01*
X486656Y300554D01*
X486646Y300654D01*
X486633Y300752D01*
X486615Y300851D01*
X486594Y300948D01*
X486569Y301044D01*
X486540Y301140D01*
X486507Y301234D01*
X486471Y301327D01*
X486431Y301418D01*
X486387Y301508D01*
X486340Y301596D01*
X486290Y301682D01*
X486236Y301766D01*
X486179Y301848D01*
X486119Y301927D01*
X486055Y302005D01*
X485989Y302079D01*
X485920Y302151D01*
X485848Y302220D01*
X485774Y302286D01*
X485696Y302350D01*
X485617Y302410D01*
X485535Y302467D01*
X485451Y302521D01*
X485365Y302571D01*
X485277Y302618D01*
X485187Y302662D01*
X485096Y302702D01*
X485003Y302738D01*
X484909Y302771D01*
X484813Y302800D01*
X484717Y302825D01*
X484620Y302846D01*
X484521Y302864D01*
X484423Y302877D01*
X484323Y302887D01*
X484224Y302893D01*
X484124Y302895D01*
X480314Y302895D01*
X480314Y307975D01*
X486664Y307975D01*
D11*
X711200Y539750D02*
X711200Y552450D01*
X717550Y558800D01*
X730250Y558800D01*
X736600Y552450D01*
X717550Y558800D02*
X711200Y565150D01*
X711200Y577850D01*
X717550Y584200D01*
X730250Y584200D01*
X736600Y577850D01*
X736600Y565150D01*
X730250Y558800D01*
X730250Y533400D02*
X717550Y533400D01*
X711200Y539750D01*
X730250Y533400D02*
X736600Y539750D01*
X736600Y552450D01*
X717550Y584200D02*
X711200Y590550D01*
X711200Y603250D01*
X717550Y609600D01*
X730250Y609600D01*
X736600Y603250D01*
X736600Y590550D01*
X730250Y584200D01*
D10*
X702437Y537083D02*
X693547Y537083D01*
X702437Y537083D02*
X702537Y537081D01*
X702636Y537075D01*
X702736Y537065D01*
X702834Y537052D01*
X702933Y537034D01*
X703030Y537013D01*
X703126Y536988D01*
X703222Y536959D01*
X703316Y536926D01*
X703409Y536890D01*
X703500Y536850D01*
X703590Y536806D01*
X703678Y536759D01*
X703764Y536709D01*
X703848Y536655D01*
X703930Y536598D01*
X704009Y536538D01*
X704087Y536474D01*
X704161Y536408D01*
X704233Y536339D01*
X704302Y536267D01*
X704368Y536193D01*
X704432Y536115D01*
X704492Y536036D01*
X704549Y535954D01*
X704603Y535870D01*
X704653Y535784D01*
X704700Y535696D01*
X704744Y535606D01*
X704784Y535515D01*
X704820Y535422D01*
X704853Y535328D01*
X704882Y535232D01*
X704907Y535136D01*
X704928Y535039D01*
X704946Y534940D01*
X704959Y534842D01*
X704969Y534742D01*
X704975Y534643D01*
X704977Y534543D01*
X704977Y533273D01*
X704977Y543063D02*
X693547Y543063D01*
X693547Y546238D01*
X693549Y546349D01*
X693555Y546459D01*
X693564Y546570D01*
X693578Y546680D01*
X693595Y546789D01*
X693616Y546898D01*
X693641Y547006D01*
X693670Y547113D01*
X693702Y547219D01*
X693738Y547324D01*
X693778Y547427D01*
X693821Y547529D01*
X693868Y547630D01*
X693919Y547729D01*
X693972Y547826D01*
X694029Y547920D01*
X694090Y548013D01*
X694153Y548104D01*
X694220Y548193D01*
X694290Y548279D01*
X694363Y548362D01*
X694438Y548444D01*
X694516Y548522D01*
X694598Y548597D01*
X694681Y548670D01*
X694767Y548740D01*
X694856Y548807D01*
X694947Y548870D01*
X695040Y548931D01*
X695135Y548988D01*
X695231Y549041D01*
X695330Y549092D01*
X695431Y549139D01*
X695533Y549182D01*
X695636Y549222D01*
X695741Y549258D01*
X695847Y549290D01*
X695954Y549319D01*
X696062Y549344D01*
X696171Y549365D01*
X696280Y549382D01*
X696390Y549396D01*
X696501Y549405D01*
X696611Y549411D01*
X696722Y549413D01*
X696833Y549411D01*
X696943Y549405D01*
X697054Y549396D01*
X697164Y549382D01*
X697273Y549365D01*
X697382Y549344D01*
X697490Y549319D01*
X697597Y549290D01*
X697703Y549258D01*
X697808Y549222D01*
X697911Y549182D01*
X698013Y549139D01*
X698114Y549092D01*
X698213Y549041D01*
X698310Y548988D01*
X698404Y548931D01*
X698497Y548870D01*
X698588Y548807D01*
X698677Y548740D01*
X698763Y548670D01*
X698846Y548597D01*
X698928Y548522D01*
X699006Y548444D01*
X699081Y548362D01*
X699154Y548279D01*
X699224Y548193D01*
X699291Y548104D01*
X699354Y548013D01*
X699415Y547920D01*
X699472Y547826D01*
X699525Y547729D01*
X699576Y547630D01*
X699623Y547529D01*
X699666Y547427D01*
X699706Y547324D01*
X699742Y547219D01*
X699774Y547113D01*
X699803Y547006D01*
X699828Y546898D01*
X699849Y546789D01*
X699866Y546680D01*
X699880Y546570D01*
X699889Y546459D01*
X699895Y546349D01*
X699897Y546238D01*
X699897Y543063D01*
X696087Y553922D02*
X693547Y557097D01*
X704977Y557097D01*
X704977Y553922D02*
X704977Y560272D01*
M02*
